<svg xmlns="http://www.w3.org/2000/svg" viewBox="0 0 1200 900" font-family="Helvetica, Arial, sans-serif">
<rect width="1200" height="900" fill="#ffffff"/>
<line x1="646.8" y1="403.3" x2="532.1" y2="484.2" stroke="#cbd5e1" stroke-width="1"/>
<line x1="700.1" y1="510.3" x2="532.1" y2="484.2" stroke="#cbd5e1" stroke-width="1"/>
<line x1="646.8" y1="403.3" x2="569.0" y2="215.2" stroke="#cbd5e1" stroke-width="1"/>
<line x1="700.1" y1="510.3" x2="569.0" y2="215.2" stroke="#cbd5e1" stroke-width="1"/>
<line x1="532.1" y1="484.2" x2="569.0" y2="215.2" stroke="#cbd5e1" stroke-width="1"/>
<line x1="179.3" y1="60.0" x2="436.2" y2="273.7" stroke="#cbd5e1" stroke-width="1"/>
<line x1="646.8" y1="403.3" x2="436.2" y2="273.7" stroke="#cbd5e1" stroke-width="1"/>
<line x1="700.1" y1="510.3" x2="436.2" y2="273.7" stroke="#cbd5e1" stroke-width="1"/>
<line x1="532.1" y1="484.2" x2="436.2" y2="273.7" stroke="#cbd5e1" stroke-width="1"/>
<line x1="543.0" y1="285.6" x2="436.2" y2="273.7" stroke="#cbd5e1" stroke-width="1"/>
<line x1="646.8" y1="403.3" x2="839.1" y2="234.9" stroke="#cbd5e1" stroke-width="1"/>
<line x1="700.1" y1="510.3" x2="839.1" y2="234.9" stroke="#cbd5e1" stroke-width="1"/>
<line x1="1140.0" y1="60.0" x2="839.1" y2="234.9" stroke="#cbd5e1" stroke-width="1"/>
<line x1="532.1" y1="484.2" x2="839.1" y2="234.9" stroke="#cbd5e1" stroke-width="1"/>
<line x1="459.0" y1="840.0" x2="369.2" y2="840.0" stroke="#cbd5e1" stroke-width="1"/>
<line x1="583.1" y1="840.0" x2="369.2" y2="840.0" stroke="#cbd5e1" stroke-width="1"/>
<line x1="532.1" y1="484.2" x2="369.2" y2="840.0" stroke="#cbd5e1" stroke-width="1"/>
<line x1="532.1" y1="484.2" x2="698.1" y2="782.6" stroke="#cbd5e1" stroke-width="1"/>
<line x1="700.1" y1="510.3" x2="698.1" y2="782.6" stroke="#cbd5e1" stroke-width="1"/>
<line x1="646.8" y1="403.3" x2="557.4" y2="644.4" stroke="#cbd5e1" stroke-width="1"/>
<line x1="700.1" y1="510.3" x2="557.4" y2="644.4" stroke="#cbd5e1" stroke-width="1"/>
<line x1="583.1" y1="840.0" x2="557.4" y2="644.4" stroke="#cbd5e1" stroke-width="1"/>
<line x1="532.1" y1="484.2" x2="557.4" y2="644.4" stroke="#cbd5e1" stroke-width="1"/>
<line x1="646.8" y1="403.3" x2="654.5" y2="212.5" stroke="#cbd5e1" stroke-width="1"/>
<line x1="700.1" y1="510.3" x2="654.5" y2="212.5" stroke="#cbd5e1" stroke-width="1"/>
<line x1="474.9" y1="60.0" x2="654.5" y2="212.5" stroke="#cbd5e1" stroke-width="1"/>
<line x1="532.1" y1="484.2" x2="654.5" y2="212.5" stroke="#cbd5e1" stroke-width="1"/>
<line x1="569.0" y1="215.2" x2="654.5" y2="212.5" stroke="#cbd5e1" stroke-width="1"/>
<line x1="543.0" y1="285.6" x2="654.5" y2="212.5" stroke="#cbd5e1" stroke-width="1"/>
<line x1="646.8" y1="403.3" x2="344.7" y2="306.1" stroke="#cbd5e1" stroke-width="1"/>
<line x1="700.1" y1="510.3" x2="344.7" y2="306.1" stroke="#cbd5e1" stroke-width="1"/>
<line x1="60.0" y1="60.0" x2="344.7" y2="306.1" stroke="#cbd5e1" stroke-width="1"/>
<line x1="532.1" y1="484.2" x2="344.7" y2="306.1" stroke="#cbd5e1" stroke-width="1"/>
<line x1="532.1" y1="484.2" x2="406.9" y2="411.2" stroke="#cbd5e1" stroke-width="1"/>
<line x1="658.0" y1="680.3" x2="406.9" y2="411.2" stroke="#cbd5e1" stroke-width="1"/>
<line x1="543.0" y1="285.6" x2="406.9" y2="411.2" stroke="#cbd5e1" stroke-width="1"/>
<line x1="436.2" y1="273.7" x2="406.9" y2="411.2" stroke="#cbd5e1" stroke-width="1"/>
<line x1="345.2" y1="160.6" x2="406.9" y2="411.2" stroke="#cbd5e1" stroke-width="1"/>
<line x1="259.1" y1="604.4" x2="114.5" y2="512.1" stroke="#cbd5e1" stroke-width="1"/>
<line x1="532.1" y1="484.2" x2="114.5" y2="512.1" stroke="#cbd5e1" stroke-width="1"/>
<line x1="646.8" y1="403.3" x2="932.4" y2="316.9" stroke="#cbd5e1" stroke-width="1"/>
<line x1="700.1" y1="510.3" x2="932.4" y2="316.9" stroke="#cbd5e1" stroke-width="1"/>
<line x1="583.1" y1="840.0" x2="658.0" y2="680.3" stroke="#cbd5e1" stroke-width="1"/>
<line x1="532.1" y1="484.2" x2="658.0" y2="680.3" stroke="#cbd5e1" stroke-width="1"/>
<line x1="700.1" y1="510.3" x2="658.0" y2="680.3" stroke="#cbd5e1" stroke-width="1"/>
<line x1="954.4" y1="840.0" x2="658.0" y2="680.3" stroke="#cbd5e1" stroke-width="1"/>
<line x1="646.8" y1="403.3" x2="543.0" y2="285.6" stroke="#cbd5e1" stroke-width="1"/>
<line x1="700.1" y1="510.3" x2="543.0" y2="285.6" stroke="#cbd5e1" stroke-width="1"/>
<line x1="474.9" y1="60.0" x2="543.0" y2="285.6" stroke="#cbd5e1" stroke-width="1"/>
<line x1="532.1" y1="484.2" x2="543.0" y2="285.6" stroke="#cbd5e1" stroke-width="1"/>
<line x1="569.0" y1="215.2" x2="543.0" y2="285.6" stroke="#cbd5e1" stroke-width="1"/>
<line x1="532.1" y1="484.2" x2="249.9" y2="761.4" stroke="#cbd5e1" stroke-width="1"/>
<line x1="459.0" y1="840.0" x2="249.9" y2="761.4" stroke="#cbd5e1" stroke-width="1"/>
<line x1="259.1" y1="604.4" x2="249.9" y2="761.4" stroke="#cbd5e1" stroke-width="1"/>
<line x1="459.0" y1="840.0" x2="700.1" y2="510.3" stroke="#cbd5e1" stroke-width="1"/>
<line x1="646.8" y1="403.3" x2="700.1" y2="510.3" stroke="#cbd5e1" stroke-width="1"/>
<line x1="1135.2" y1="489.2" x2="700.1" y2="510.3" stroke="#cbd5e1" stroke-width="1"/>
<line x1="259.1" y1="604.4" x2="700.1" y2="510.3" stroke="#cbd5e1" stroke-width="1"/>
<line x1="583.1" y1="840.0" x2="700.1" y2="510.3" stroke="#cbd5e1" stroke-width="1"/>
<line x1="1112.4" y1="635.4" x2="700.1" y2="510.3" stroke="#cbd5e1" stroke-width="1"/>
<line x1="868.6" y1="840.0" x2="700.1" y2="510.3" stroke="#cbd5e1" stroke-width="1"/>
<line x1="1105.0" y1="337.8" x2="700.1" y2="510.3" stroke="#cbd5e1" stroke-width="1"/>
<line x1="646.8" y1="403.3" x2="889.2" y2="592.1" stroke="#cbd5e1" stroke-width="1"/>
<line x1="700.1" y1="510.3" x2="889.2" y2="592.1" stroke="#cbd5e1" stroke-width="1"/>
<line x1="1140.0" y1="840.0" x2="889.2" y2="592.1" stroke="#cbd5e1" stroke-width="1"/>
<line x1="532.1" y1="484.2" x2="889.2" y2="592.1" stroke="#cbd5e1" stroke-width="1"/>
<line x1="646.8" y1="403.3" x2="784.2" y2="361.2" stroke="#cbd5e1" stroke-width="1"/>
<line x1="700.1" y1="510.3" x2="784.2" y2="361.2" stroke="#cbd5e1" stroke-width="1"/>
<line x1="532.1" y1="484.2" x2="784.2" y2="361.2" stroke="#cbd5e1" stroke-width="1"/>
<line x1="646.8" y1="403.3" x2="382.9" y2="624.5" stroke="#cbd5e1" stroke-width="1"/>
<line x1="700.1" y1="510.3" x2="382.9" y2="624.5" stroke="#cbd5e1" stroke-width="1"/>
<line x1="60.0" y1="840.0" x2="382.9" y2="624.5" stroke="#cbd5e1" stroke-width="1"/>
<line x1="532.1" y1="484.2" x2="382.9" y2="624.5" stroke="#cbd5e1" stroke-width="1"/>
<line x1="646.8" y1="403.3" x2="795.9" y2="631.8" stroke="#cbd5e1" stroke-width="1"/>
<line x1="700.1" y1="510.3" x2="795.9" y2="631.8" stroke="#cbd5e1" stroke-width="1"/>
<line x1="954.4" y1="840.0" x2="795.9" y2="631.8" stroke="#cbd5e1" stroke-width="1"/>
<line x1="532.1" y1="484.2" x2="795.9" y2="631.8" stroke="#cbd5e1" stroke-width="1"/>
<line x1="474.9" y1="60.0" x2="345.2" y2="160.6" stroke="#cbd5e1" stroke-width="1"/>
<line x1="179.3" y1="60.0" x2="345.2" y2="160.6" stroke="#cbd5e1" stroke-width="1"/>
<line x1="569.0" y1="215.2" x2="345.2" y2="160.6" stroke="#cbd5e1" stroke-width="1"/>
<line x1="532.1" y1="484.2" x2="345.2" y2="160.6" stroke="#cbd5e1" stroke-width="1"/>
<circle cx="532.1" cy="484.2" r="7" fill="#d97706"/>
<text x="543.1" y="487.2" font-size="10" fill="#1f2937">aiFindings</text>
<circle cx="569.0" cy="215.2" r="7" fill="#d97706"/>
<text x="580.0" y="218.2" font-size="10" fill="#1f2937">aiHypothesis</text>
<circle cx="436.2" cy="273.7" r="7" fill="#059669"/>
<text x="447.2" y="276.7" font-size="10" fill="#1f2937">aiOnPlan</text>
<circle cx="839.1" cy="234.9" r="7" fill="#059669"/>
<text x="850.1" y="237.9" font-size="10" fill="#1f2937">allergyResults</text>
<circle cx="369.2" cy="840.0" r="7" fill="#d97706"/>
<text x="380.2" y="843.0" font-size="10" fill="#1f2937">criticalRatios</text>
<circle cx="698.1" cy="782.6" r="7" fill="#059669"/>
<text x="709.1" y="785.6" font-size="10" fill="#1f2937">dataRequisition</text>
<circle cx="583.1" cy="840.0" r="7" fill="#2563eb"/>
<text x="594.1" y="843.0" font-size="10" fill="#1f2937">diagnosedDisease</text>
<circle cx="557.4" cy="644.4" r="7" fill="#059669"/>
<text x="568.4" y="647.4" font-size="10" fill="#1f2937">diseaseResults</text>
<circle cx="654.5" cy="212.5" r="7" fill="#059669"/>
<text x="665.5" y="215.5" font-size="10" fill="#1f2937">doctorConversation</text>
<circle cx="344.7" cy="306.1" r="7" fill="#059669"/>
<text x="355.7" y="309.1" font-size="10" fill="#1f2937">familyResults</text>
<circle cx="406.9" cy="411.2" r="7" fill="#059669"/>
<text x="417.9" y="414.2" font-size="10" fill="#1f2937">finalThoughts</text>
<circle cx="114.5" cy="512.1" r="7" fill="#059669"/>
<text x="125.5" y="515.1" font-size="10" fill="#1f2937">healthMarkers</text>
<circle cx="932.4" cy="316.9" r="7" fill="#d97706"/>
<text x="943.4" y="319.9" font-size="10" fill="#1f2937">healthProgression</text>
<circle cx="658.0" cy="680.3" r="7" fill="#d97706"/>
<text x="669.0" y="683.3" font-size="10" fill="#1f2937">healthSynthesis</text>
<circle cx="543.0" cy="285.6" r="7" fill="#059669"/>
<text x="554.0" y="288.6" font-size="10" fill="#1f2937">hypothesisEvaluation</text>
<circle cx="459.0" cy="840.0" r="7" fill="#2563eb"/>
<text x="470.0" y="843.0" font-size="10" fill="#1f2937">labData</text>
<circle cx="249.9" cy="761.4" r="7" fill="#7c3aed"/>
<text x="260.9" y="764.4" font-size="10" fill="#1f2937">markerGroups</text>
<circle cx="700.1" cy="510.3" r="7" fill="#d97706"/>
<text x="711.1" y="513.3" font-size="10" fill="#1f2937">markerLevels</text>
<circle cx="889.2" cy="592.1" r="7" fill="#059669"/>
<text x="900.2" y="595.1" font-size="10" fill="#1f2937">noteResults</text>
<circle cx="1140.0" cy="60.0" r="7" fill="#2563eb"/>
<text x="1151.0" y="63.0" font-size="10" fill="#1f2937">patientAllergies</text>
<circle cx="646.8" cy="403.3" r="7" fill="#2563eb"/>
<text x="657.8" y="406.3" font-size="10" fill="#1f2937">patientAssessment</text>
<circle cx="60.0" cy="60.0" r="7" fill="#2563eb"/>
<text x="71.0" y="63.0" font-size="10" fill="#1f2937">patientFamilyHistory</text>
<circle cx="474.9" cy="60.0" r="7" fill="#2563eb"/>
<text x="485.9" y="63.0" font-size="10" fill="#1f2937">patientHypothesis</text>
<circle cx="179.3" cy="60.0" r="7" fill="#2563eb"/>
<text x="190.3" y="63.0" font-size="10" fill="#1f2937">patientPlan</text>
<circle cx="784.2" cy="361.2" r="7" fill="#d97706"/>
<text x="795.2" y="364.2" font-size="10" fill="#1f2937">patternAntipattern</text>
<circle cx="1105.0" cy="337.8" r="7" fill="#2563eb"/>
<text x="1116.0" y="340.8" font-size="10" fill="#1f2937">personalizedRanges</text>
<circle cx="1112.4" cy="635.4" r="7" fill="#2563eb"/>
<text x="1123.4" y="638.4" font-size="10" fill="#1f2937">pinnedQueries</text>
<circle cx="1140.0" cy="840.0" r="7" fill="#2563eb"/>
<text x="1151.0" y="843.0" font-size="10" fill="#1f2937">pursuedNotes</text>
<circle cx="60.0" cy="840.0" r="7" fill="#2563eb"/>
<text x="71.0" y="843.0" font-size="10" fill="#1f2937">pursuedStudy</text>
<circle cx="868.6" cy="840.0" r="7" fill="#2563eb"/>
<text x="879.6" y="843.0" font-size="10" fill="#1f2937">recommendedMarkers</text>
<circle cx="1135.2" cy="489.2" r="7" fill="#2563eb"/>
<text x="1146.2" y="492.2" font-size="10" fill="#1f2937">statedObjective</text>
<circle cx="382.9" cy="624.5" r="7" fill="#059669"/>
<text x="393.9" y="627.5" font-size="10" fill="#1f2937">studyResults</text>
<circle cx="795.9" cy="631.8" r="7" fill="#059669"/>
<text x="806.9" y="634.8" font-size="10" fill="#1f2937">treatmentAssessment</text>
<circle cx="345.2" cy="160.6" r="7" fill="#059669"/>
<text x="356.2" y="163.6" font-size="10" fill="#1f2937">treatmentGroups</text>
<circle cx="954.4" cy="840.0" r="7" fill="#2563eb"/>
<text x="965.4" y="843.0" font-size="10" fill="#1f2937">treatmentHistory</text>
<circle cx="259.1" cy="604.4" r="7" fill="#2563eb"/>
<text x="270.1" y="607.4" font-size="10" fill="#1f2937">watchlist</text>
<text x="20" y="796" font-size="12" font-weight="bold" fill="#1f2937">kind</text>
<circle cx="26" cy="808" r="6" fill="#2563eb"/>
<text x="38" y="812" font-size="12" fill="#1f2937">source</text>
<circle cx="26" cy="826" r="6" fill="#d97706"/>
<text x="38" y="830" font-size="12" fill="#1f2937">derived</text>
<circle cx="26" cy="844" r="6" fill="#059669"/>
<text x="38" y="848" font-size="12" fill="#1f2937">leaf</text>
<circle cx="26" cy="862" r="6" fill="#7c3aed"/>
<text x="38" y="866" font-size="12" fill="#1f2937">projection</text>
</svg>
